<svg xmlns="http://www.w3.org/2000/svg" width="49.492" height="49.492" viewBox="0 0 49.492 49.492">
    <defs>
        <style>
            .cls-1{fill:#1d1d1d;stroke:#1d1d1d}
        </style>
    </defs>
    <g id="chef" transform="translate(.5 .5)">
        <g id="Group_3361">
            <g id="Group_3360">
                <path id="Path_10491" d="M108.87 214.435a1.1 1.1 0 1 0-2.2 0c0 2.894 3.192 6.868 3.556 7.312a1.1 1.1 0 1 0 1.7-1.4c-1.181-1.439-3.056-4.317-3.056-5.912z" class="cls-1" transform="translate(-95.645 -191.291)"/>
                <path id="Path_10492" d="M313.745 213.333a1.1 1.1 0 0 0-1.1 1.1c0 1.59-1.875 4.471-3.057 5.914a1.1 1.1 0 0 0 1.7 1.4c.364-.444 3.556-4.418 3.556-7.312a1.1 1.1 0 0 0-1.099-1.102z" class="cls-1" transform="translate(-277.376 -191.291)"/>
                <path id="Path_10493" d="M225.1 213.333a1.1 1.1 0 0 0-1.1 1.1v6.612a1.1 1.1 0 1 0 2.2 0v-6.612a1.1 1.1 0 0 0-1.1-1.1z" class="cls-1" transform="translate(-200.856 -191.291)"/>
                <path id="Path_10494" d="M36.369 4.408a11.543 11.543 0 0 0-2.091.223 13.182 13.182 0 0 0-20.065 0 11.554 11.554 0 0 0-2.091-.223 12.118 12.118 0 0 0-5.484 22.927L6.617 43.99a4.5 4.5 0 0 0 4.5 4.5h26.266a4.5 4.5 0 0 0 4.5-4.5V27.319a12.116 12.116 0 0 0-5.511-22.91zM39.675 44a2.3 2.3 0 0 1-2.292 2.292h-26.27a2.293 2.293 0 0 1-2.292-2.3l.006-4.317h30.848zm.682-18.4a.988.988 0 0 0-.165.085 1.1 1.1 0 0 0-.506.774 1.065 1.065 0 0 0-.012.185v10.827H8.829l.014-10.809a1.135 1.135 0 0 0-.011-.181 1.1 1.1 0 0 0-.174-.456 1.092 1.092 0 0 0-.327-.32 1.154 1.154 0 0 0-.173-.089 9.914 9.914 0 0 1 3.965-19c.214 0 .439.026.661.043a13.129 13.129 0 0 0-1.763 6.569 1.1 1.1 0 0 0 2.2 0 11.021 11.021 0 1 1 22.042 0 1.1 1.1 0 1 0 2.2 0A13.129 13.129 0 0 0 35.7 6.659c.221-.017.447-.043.661-.043A9.913 9.913 0 0 1 40.357 25.6z" class="cls-1"/>
            </g>
        </g>
    </g>
</svg>
